<svg width="551" height="497" viewBox="0 0 551 497" fill="none" xmlns="http://www.w3.org/2000/svg">
<path d="M88.4794 262.023C81.1735 254.535 81.1735 242.393 88.4794 234.904L261.433 57.6167C268.739 50.1278 280.584 50.1278 287.89 57.6167L460.843 234.904C468.149 242.393 468.149 254.535 460.843 262.023L287.89 439.31C280.584 446.799 268.739 446.799 261.433 439.31L88.4794 262.023ZM230.95 209.354C230.95 201.647 228.989 195.448 225.066 190.757C221.143 186.066 216.158 182.659 210.111 180.537C204.064 178.415 197.608 177.382 190.743 177.438C183.879 177.494 177.423 178.387 171.375 180.118C165.328 181.85 160.343 184.251 156.42 187.322C152.498 190.394 150.536 193.828 150.536 197.626C150.536 200.865 151.027 203.239 152.007 204.746C152.988 206.254 154.132 207.567 155.439 208.684C157.074 209.912 158.518 211.56 159.771 213.626C161.024 215.692 161.65 219.127 161.65 223.929V287.091C161.977 303.733 165.9 316.997 173.418 326.881C180.937 336.766 190.225 343.077 201.285 345.813C212.345 348.55 223.268 347.572 234.055 342.881C244.843 338.19 253.56 329.534 260.206 316.913C264.565 326.854 270.83 334.141 279.002 338.777C287.174 343.412 296.49 346.176 306.951 347.07C319.372 348.075 330.841 345.813 341.356 340.284C351.87 334.756 361.159 327.021 369.223 317.081C377.286 307.14 384.014 296.055 389.408 283.824C394.801 271.594 398.642 259.28 400.93 246.882C403.219 234.484 403.763 223.064 402.565 212.621C401.366 202.178 398.261 193.745 393.249 187.323C388.236 180.9 381.099 177.689 371.838 177.689C363.557 177.689 356.474 180.677 350.59 186.652C344.706 192.628 341.764 199.86 341.764 208.349C341.764 214.268 343.208 219.657 346.095 224.516C348.983 229.375 352.933 233.033 357.945 235.49C362.521 238.17 364.564 243.196 364.074 250.568C363.584 257.94 361.486 265.758 357.782 274.023C354.077 282.289 349.746 289.186 344.788 294.714C339.83 300.243 335.227 302.505 330.977 301.5C328.798 300.941 327.054 299.377 325.747 296.809C324.439 294.24 323.84 289.437 323.949 282.4V209.354C323.949 201.647 321.988 195.448 318.065 190.757C314.142 186.066 309.157 182.659 303.11 180.537C297.063 178.415 290.634 177.382 283.824 177.438C277.014 177.494 270.558 178.387 264.456 180.119C258.354 181.85 253.342 184.251 249.419 187.323C245.497 190.394 243.535 193.829 243.535 197.626C243.535 200.865 244.026 203.239 245.006 204.747C245.987 206.254 247.185 207.567 248.602 208.684C250.127 209.912 251.517 211.56 252.77 213.626C254.023 215.692 254.649 219.127 254.649 223.93V287.091C254.649 292.676 253.451 296.809 251.054 299.489C248.656 302.17 245.905 303.343 242.8 303.008C239.694 302.672 236.943 300.802 234.546 297.395C232.149 293.988 230.95 288.99 230.95 282.4L230.95 209.354Z" fill="#F3B10C"/>
</svg>
