<svg viewBox="0 0 551 497" fill="none" xmlns="http://www.w3.org/2000/svg">
  <path
    d="M60.4794 234.023C53.1735 226.535 53.1735 214.393 60.4794 206.904L233.433 29.6167C240.739 22.1278 252.584 22.1278 259.89 29.6167L432.843 206.904C440.149 214.393 440.149 226.535 432.843 234.023L259.89 411.31C252.584 418.799 240.739 418.799 233.433 411.31L60.4794 234.023ZM202.95 181.354C202.95 173.647 200.989 167.448 197.066 162.757C193.143 158.066 188.158 154.659 182.111 152.537C176.064 150.415 169.608 149.382 162.743 149.438C155.879 149.494 149.423 150.387 143.375 152.118C137.328 153.85 132.343 156.251 128.42 159.322C124.498 162.394 122.536 165.828 122.536 169.626C122.536 172.865 123.027 175.239 124.007 176.746C124.988 178.254 126.132 179.567 127.439 180.684C129.074 181.912 130.518 183.56 131.771 185.626C133.024 187.692 133.65 191.127 133.65 195.929V259.091C133.977 275.733 137.9 288.997 145.418 298.881C152.937 308.766 162.225 315.077 173.285 317.813C184.345 320.55 195.268 319.572 206.055 314.881C216.843 310.19 225.56 301.534 232.206 288.913C236.565 298.854 242.83 306.141 251.002 310.777C259.174 315.412 268.49 318.176 278.951 319.07C291.372 320.075 302.841 317.813 313.356 312.284C323.87 306.756 333.159 299.021 341.223 289.081C349.286 279.14 356.014 268.055 361.408 255.824C366.801 243.594 370.642 231.28 372.93 218.882C375.219 206.484 375.763 195.064 374.565 184.621C373.366 174.178 370.261 165.745 365.249 159.323C360.236 152.9 353.099 149.689 343.838 149.689C335.557 149.689 328.474 152.677 322.59 158.652C316.706 164.628 313.764 171.86 313.764 180.349C313.764 186.268 315.208 191.657 318.095 196.516C320.983 201.375 324.933 205.033 329.945 207.49C334.521 210.17 336.564 215.196 336.074 222.568C335.584 229.94 333.486 237.758 329.782 246.023C326.077 254.289 321.746 261.186 316.788 266.714C311.83 272.243 307.227 274.505 302.977 273.5C300.798 272.941 299.054 271.377 297.747 268.809C296.439 266.24 295.84 261.437 295.949 254.4V181.354C295.949 173.647 293.988 167.448 290.065 162.757C286.142 158.066 281.157 154.659 275.11 152.537C269.063 150.415 262.634 149.382 255.824 149.438C249.014 149.494 242.558 150.387 236.456 152.119C230.354 153.85 225.342 156.251 221.419 159.323C217.497 162.394 215.535 165.829 215.535 169.626C215.535 172.865 216.026 175.239 217.006 176.747C217.987 178.254 219.185 179.567 220.602 180.684C222.127 181.912 223.517 183.56 224.77 185.626C226.023 187.692 226.649 191.127 226.649 195.93V259.091C226.649 264.676 225.451 268.809 223.054 271.489C220.656 274.17 217.905 275.343 214.8 275.008C211.694 274.672 208.943 272.802 206.546 269.395C204.149 265.988 202.95 260.99 202.95 254.4L202.95 181.354Z"
    fill="url(#paint0_linear_1274_3759)" />
  <path
    d="M335.769 453.06L332.996 456.088C329.921 459.444 324.753 459.671 321.41 456.452L303.732 439.429L312.474 429.885C313.439 428.832 313.383 427.044 312.226 425.93C311.197 424.94 309.453 424.994 308.488 426.047L299.746 435.591L291.711 427.853C290.553 426.739 288.56 426.801 287.475 427.986C286.269 429.302 286.333 431.346 287.49 432.46L317.19 461.059C322.911 466.568 332.13 466.279 337.496 460.421L340.269 457.393C341.475 456.077 341.411 454.034 340.125 452.796C338.968 451.681 336.975 451.744 335.769 453.06Z"
    fill="url(#paint1_linear_1274_3759)" />
  <path
    d="M353.486 376.927C352.461 378.046 352.453 379.772 353.546 380.825L357.082 384.229C350.712 383.918 344.242 386.358 339.539 391.492C330.978 400.838 331.437 415.525 340.501 424.253C349.629 433.044 363.955 432.594 372.517 423.248C377.22 418.114 379.19 411.341 378.488 404.843L381.767 408C382.86 409.052 384.604 408.997 385.629 407.878C386.654 406.759 386.537 405.037 385.445 403.985L357.224 376.81C356.131 375.757 354.511 375.808 353.486 376.927ZM368.017 418.915C361.807 425.694 351.407 426.084 344.721 419.646C338.1 413.27 337.829 402.604 344.039 395.825C350.249 389.046 360.649 388.656 367.27 395.031C373.956 401.469 374.227 412.136 368.017 418.915Z"
    fill="url(#paint2_linear_1274_3759)" />
  <path
    d="M390.709 344.351C391.553 347.393 388.012 347.824 385.886 349.616C383.386 351.421 381.372 354.808 381.846 357.989C382.379 361.105 385.124 363.128 388.101 362.651C391.075 362.046 393.443 359.99 396.147 358.754C400.452 356.829 405.503 356.863 409.521 359.741C413.921 362.862 416.102 368.803 414.714 374.28C412.824 381.626 406.209 385.413 402.865 386.158C401.193 386.53 399.542 385.559 399.116 383.91C398.614 381.817 400.133 380.554 401.797 379.927C404.944 378.869 408.043 376.279 408.871 372.865C409.708 369.707 408.668 366.351 405.992 364.518C402.102 361.764 398.188 364.188 394.571 366.155C390.889 368.06 387.063 369.331 383.085 367.73C379.863 366.361 377.589 363.428 376.733 360.004C375.071 352.705 380.193 345.001 386.92 342.808C388.524 342.246 390.219 342.641 390.709 344.351Z"
    fill="url(#paint3_linear_1274_3759)" />
  <path
    d="M452.707 326.466L429.351 327.264L427.588 302.773C427.408 300.989 425.933 299.693 424.193 299.876C422.513 299.992 421.251 301.502 421.367 303.224L423.275 328.349L401.418 307.303C400.197 306.127 398.204 306.189 397.058 307.44C395.852 308.756 395.976 310.734 397.198 311.91L435.511 348.804C436.733 349.98 438.666 349.983 439.871 348.667C441.017 347.416 440.953 345.373 439.732 344.196L428.739 333.611L452.967 332.786C454.896 332.662 456.042 331.411 455.982 329.495C455.926 327.707 454.512 326.346 452.707 326.466Z"
    fill="url(#paint4_linear_1274_3759)" />
  <path
    d="M459.12 269.673C459.964 272.715 456.423 273.145 454.297 274.938C451.797 276.742 449.783 280.13 450.257 283.311C450.791 286.426 453.535 288.449 456.513 287.972C459.486 287.368 461.854 285.312 464.559 284.076C468.863 282.151 473.914 282.184 477.932 285.062C482.332 288.184 484.513 294.124 483.125 299.601C481.235 306.948 474.62 310.735 471.276 311.479C469.604 311.851 467.953 310.88 467.527 309.232C467.025 307.138 468.545 305.876 470.208 305.248C473.355 304.191 476.454 301.6 477.283 298.187C478.119 295.028 477.079 291.673 474.403 289.839C470.514 287.085 466.599 289.509 462.982 291.477C459.3 293.382 455.474 294.653 451.496 293.052C448.274 291.683 446 288.75 445.145 285.325C443.482 278.026 448.604 270.323 455.331 268.13C456.935 267.568 458.63 267.962 459.12 269.673Z"
    fill="url(#paint5_linear_1274_3759)" />
  <defs>
    <linearGradient id="paint0_linear_1274_3759" x1="58.1948" y1="416.928" x2="518.219" y2="235.981"
      gradientUnits="userSpaceOnUse">
      <stop stop-color="#F89629" />
      <stop offset="1" stop-color="#F3B10C" />
    </linearGradient>
    <linearGradient id="paint1_linear_1274_3759" x1="327.791" y1="471.015" x2="345.194" y2="446.493"
      gradientUnits="userSpaceOnUse">
      <stop stop-color="#F89629" />
      <stop offset="1" stop-color="#F3B10C" />
    </linearGradient>
    <linearGradient id="paint2_linear_1274_3759" x1="357.28" y1="439.881" x2="379.281" y2="384.766"
      gradientUnits="userSpaceOnUse">
      <stop stop-color="#F89629" />
      <stop offset="1" stop-color="#F3B10C" />
    </linearGradient>
    <linearGradient id="paint3_linear_1274_3759" x1="403.887" y1="388.852" x2="421.677" y2="359.531"
      gradientUnits="userSpaceOnUse">
      <stop stop-color="#F89629" />
      <stop offset="1" stop-color="#F3B10C" />
    </linearGradient>
    <linearGradient id="paint4_linear_1274_3759" x1="437.925" y1="350.792" x2="459.365" y2="317.424"
      gradientUnits="userSpaceOnUse">
      <stop stop-color="#F89629" />
      <stop offset="1" stop-color="#F3B10C" />
    </linearGradient>
    <linearGradient id="paint5_linear_1274_3759" x1="472.299" y1="314.174" x2="490.088" y2="284.852"
      gradientUnits="userSpaceOnUse">
      <stop stop-color="#F89629" />
      <stop offset="1" stop-color="#F3B10C" />
    </linearGradient>
  </defs>
</svg>